<svg width="23" height="18" viewBox="0 0 23 18" fill="none" xmlns="http://www.w3.org/2000/svg">
<path d="M22.4285 2.80356L8.42855 16.8036C8.30661 16.9259 8.16172 17.023 8.00218 17.0892C7.84265 17.1555 7.6716 17.1896 7.49886 17.1896C7.32612 17.1896 7.15507 17.1555 6.99553 17.0892C6.836 17.023 6.69111 16.9259 6.56917 16.8036L0.444171 10.6786C0.322083 10.5565 0.225237 10.4115 0.159163 10.252C0.0930897 10.0925 0.059082 9.92153 0.059082 9.74887C0.059082 9.57621 0.0930897 9.40524 0.159163 9.24573C0.225237 9.08621 0.322083 8.94127 0.444171 8.81918C0.566259 8.69709 0.711199 8.60025 0.870715 8.53417C1.03023 8.4681 1.2012 8.43409 1.37386 8.43409C1.54652 8.43409 1.71749 8.4681 1.877 8.53417C2.03652 8.60025 2.18146 8.69709 2.30355 8.81918L7.49995 14.0156L20.5714 0.946368C20.8179 0.6998 21.1523 0.561279 21.501 0.561279C21.8497 0.561279 22.1842 0.6998 22.4307 0.946368C22.6773 1.19294 22.8158 1.52736 22.8158 1.87606C22.8158 2.22476 22.6773 2.55918 22.4307 2.80574L22.4285 2.80356Z" fill="white"/>
</svg>
