<svg width="25" height="25" viewBox="0 0 25 25" fill="none" xmlns="http://www.w3.org/2000/svg">
<path d="M24.875 12.5C24.875 12.7735 24.7664 13.0358 24.573 13.2292C24.3796 13.4226 24.1173 13.5312 23.8438 13.5312H13.5312V23.8438C13.5312 24.1173 13.4226 24.3796 13.2292 24.573C13.0358 24.7664 12.7735 24.875 12.5 24.875C12.2265 24.875 11.9642 24.7664 11.7708 24.573C11.5774 24.3796 11.4688 24.1173 11.4688 23.8438V13.5312H1.15625C0.882746 13.5312 0.620443 13.4226 0.427046 13.2292C0.233649 13.0358 0.125 12.7735 0.125 12.5C0.125 12.2265 0.233649 11.9642 0.427046 11.7708C0.620443 11.5774 0.882746 11.4688 1.15625 11.4688H11.4688V1.15625C11.4688 0.882746 11.5774 0.620443 11.7708 0.427046C11.9642 0.233649 12.2265 0.125 12.5 0.125C12.7735 0.125 13.0358 0.233649 13.2292 0.427046C13.4226 0.620443 13.5312 0.882746 13.5312 1.15625V11.4688H23.8438C24.1173 11.4688 24.3796 11.5774 24.573 11.7708C24.7664 11.9642 24.875 12.2265 24.875 12.5Z" fill="white"/>
</svg>
